<svg width="56" height="56" viewBox="0 0 56 56" fill="none" xmlns="http://www.w3.org/2000/svg">
<g id="Group 19">
<circle id="Oval Copy 29" cx="28" cy="28" r="28" fill="#0D003B"/>
<g id="tennis-ball (2)">
<path id="Path" d="M26.6657 14.054C23.5385 14.3456 20.4859 15.6916 18.0867 18.0894C15.6876 20.4864 14.3429 23.5391 14.052 26.6703C17.4858 27.0685 21.1367 28.8236 24.1341 31.821C27.1328 34.819 28.89 38.4727 29.2847 41.9037C32.4207 41.6128 35.4659 40.2674 37.867 37.871C40.2655 35.4746 41.6088 32.4206 41.8983 29.2901C38.4728 28.8926 34.8157 27.1375 31.8183 24.1394C28.823 21.1421 27.0659 17.4877 26.6657 14.054Z" fill="#6EDE29"/>
<path id="Path_2" d="M41.9544 27.5561C41.8526 24.1176 40.4922 20.7111 37.8712 18.0866C35.2487 15.4621 31.8382 14.1065 28.3997 14C28.7862 17.0028 30.3808 20.2297 33.0538 22.9033C35.7268 25.577 38.9495 27.1689 41.9544 27.5561Z" fill="#6EDE29"/>
<path id="Path_3" d="M14.0007 28.403C14.1018 31.8401 15.4629 35.2472 18.0867 37.8704C20.7084 40.4921 24.1149 41.8546 27.5527 41.9543C27.1662 38.9555 25.5736 35.7308 22.8993 33.0571C20.2277 30.3848 17.0015 28.7922 14.0007 28.403Z" fill="#6EDE29"/>
</g>
</g>
</svg>
