<svg width="56" height="56" viewBox="0 0 56 56" fill="none" xmlns="http://www.w3.org/2000/svg">
<g id="Group 19">
<circle id="Oval Copy 29" cx="28" cy="28" r="28" fill="#0D003B"/>
<g id="golf-club (1)">
<path id="Path" d="M42.6023 37.0393H35.738V40.0797H33.8202V32.407H29.3242V40.0797H27.4064V32.407H22.9104V40.0797H20.9926V37.0393H14.1283V40.0797H12V41.9975H44.7306V40.0797H42.6023V37.0393Z" fill="#6EDE29"/>
<path id="Path_2" d="M23.6805 23.5458C22.7941 22.6752 22.1483 21.5605 21.8536 20.3115H13.2955L12 21.6069V23.5458H12.2105H23.6805Z" fill="#6EDE29"/>
<path id="Shape" fill-rule="evenodd" clip-rule="evenodd" d="M33.1376 18.7748C33.1376 21.3889 31.0246 23.5178 28.4169 23.5458H28.3136C25.706 23.5178 23.593 21.3889 23.593 18.7748C23.593 16.1434 25.7339 14.0025 28.3653 14.0025C30.9967 14.0025 33.1376 16.1434 33.1376 18.7748ZM28.3653 16.7911H26.4475V18.7089H28.3653V20.6267H30.2831V18.7089H28.3653V16.7911Z" fill="#6EDE29"/>
<path id="Path_3" d="M42.6024 35.1215V25.4636H14.1284V35.1215H20.9927V30.4892H35.7381V35.1215H42.6024Z" fill="#6EDE29"/>
<path id="Path_4" d="M43.4351 20.3115H34.877C34.5823 21.5604 33.9365 22.6752 33.05 23.5458H44.5201H44.7306V21.6069L43.4351 20.3115Z" fill="#6EDE29"/>
</g>
</g>
</svg>
