<svg width="56" height="56" viewBox="0 0 56 56" fill="none" xmlns="http://www.w3.org/2000/svg">
<g id="Group 19">
<circle id="Oval Copy 29" cx="28" cy="28" r="28" fill="#0D003B"/>
<g id="Group 9">
<g id="trophy">
<path id="Shape" fill-rule="evenodd" clip-rule="evenodd" d="M40.6 15.4H36.4V14H19.6V15.4H15.4C14.56 15.4 14 15.96 14 16.8V20.16C14 23.38 16.38 26.04 19.6 26.46V26.6C19.6 30.66 22.4 34.02 26.18 34.86L25.2 37.8H21.98C21.42 37.8 20.86 38.22 20.72 38.78L19.6 42H36.4L35.28 38.78C35.14 38.22 34.58 37.8 34.02 37.8H30.8L29.82 34.86C33.6 34.02 36.4 30.66 36.4 26.6V26.46C39.62 26.04 42 23.38 42 20.16V16.8C42 15.96 41.44 15.4 40.6 15.4ZM19.6 23.66C18.06 23.24 16.8 21.84 16.8 20.16V18.2H19.6V23.66ZM36.4 23.66C37.94 23.38 39.2 21.84 39.2 20.16V18.2H36.4V23.66Z" fill="#6EDE29"/>
</g>
</g>
</g>
</svg>
