<svg width="56" height="56" viewBox="0 0 56 56" fill="none" xmlns="http://www.w3.org/2000/svg">
<g id="Group 19">
<circle id="Oval Copy 29" cx="28" cy="28" r="28" fill="#0D003B"/>
<g id="Group 2 Copy 12">
<g id="swing">
<path id="Combined Shape" fill-rule="evenodd" clip-rule="evenodd" d="M22.9909 41.9797H38.6308C38.9064 41.9797 39.1298 42.2031 39.1298 42.4787C39.1298 42.7542 38.9064 42.9776 38.6308 42.9776H18.1741C17.8986 42.9776 17.6752 42.7542 17.6752 42.4787C17.6752 42.2031 17.8986 41.9797 18.1741 41.9797H19.4484C18.9945 41.1992 19.1211 40.2111 19.7573 39.5703L23.5298 35.7928L22.8642 31.452C21.6863 31.3569 20.5339 31.0572 19.4589 30.5664C19.215 30.4462 19.1122 30.1528 19.2278 29.9067C19.3434 29.6606 19.6347 29.5523 19.883 29.6633C20.7772 30.0707 21.7316 30.33 22.709 30.4312C22.6813 30.2891 22.6665 30.1448 22.6646 30.0001V25.2651C22.6652 24.4352 23.0419 23.6503 23.6889 23.1306C22.6025 22.5154 22.012 21.2905 22.2073 20.0573C22.4026 18.8242 23.3427 17.8417 24.5661 17.5923C24.124 16.1628 24.3825 14.5418 25.5949 13.6397C27.1052 12.5056 29.4049 13.0175 30.8333 14.8037C31.5464 15.6668 31.9324 16.7537 31.9235 17.8732C31.9233 17.9678 31.9178 18.0622 31.9071 18.1561V18.1901C31.8433 18.8383 31.5891 19.4532 31.1766 19.9573L32.5462 21.5604C33.3001 21.4091 34.0642 21.7687 34.4281 22.4461C34.7921 23.1234 34.6701 23.9591 34.1279 24.5042L31.1342 27.4979C30.8075 27.8265 30.3627 28.0107 29.8993 28.0093H28.153V29.774L28.2528 29.8095C28.5372 29.7172 28.8201 29.6199 29.101 29.5101C34.3768 27.4535 37.5396 22.8701 36.1496 19.2967C35.5371 17.8548 34.3449 16.7381 32.866 16.2212C32.6103 16.1184 32.4863 15.8278 32.5891 15.5721C32.6919 15.3164 32.9825 15.1924 33.2382 15.2952C34.9755 15.9127 36.3709 17.2356 37.0801 18.9375C38.6443 22.9615 35.3513 28.0252 29.7212 30.3334L33.3136 31.6156C33.7987 31.7908 34.1974 32.1465 34.4267 32.6085L37.4204 38.5934C37.7782 39.2351 37.7545 40.0215 37.3586 40.6405C36.9628 41.2594 36.2589 41.6109 35.5263 41.5553C34.7937 41.4998 34.1509 41.0462 33.8529 40.3746L31.2195 35.1078L27.2469 33.6893L27.6281 36.1865C27.7282 36.8163 27.5191 37.4558 27.0663 37.9048L22.9909 41.9797ZM26.8937 22.9605C27.4561 23.3204 27.8671 23.8741 28.0487 24.5167H29.1763L31.6461 22.0439L30.4087 20.597C29.9343 20.8746 29.3942 21.0204 28.8445 21.0191C28.6011 21.0186 28.3584 20.9933 28.1201 20.9437C28.0051 21.7557 27.5617 22.4848 26.8937 22.9605ZM26.1917 14.438C27.0658 13.7834 28.6025 13.8088 30.1019 15.4808C30.6297 16.159 30.9198 16.9919 30.9276 17.8513V17.8657C30.934 18.5477 30.627 19.1949 30.0949 19.6215C29.5084 20.0293 28.764 20.1368 28.0861 19.9114C27.8179 18.6984 26.8393 17.7702 25.6139 17.5664C25.1878 16.4911 25.2561 15.1365 26.1917 14.438ZM18.0354 28.36C18.2272 28.5579 18.2223 28.8737 18.0244 29.0655C17.9297 29.1586 17.8017 29.21 17.6689 29.2084C17.5361 29.2068 17.4094 29.1523 17.3169 29.0571C16.7772 28.5027 16.3541 27.8458 16.0726 27.1251C16.0077 26.9591 16.0363 26.7711 16.1477 26.6318C16.259 26.4926 16.4362 26.4234 16.6124 26.4502C16.7887 26.4771 16.9372 26.5959 17.0021 26.7619C17.2361 27.3584 17.5874 27.9019 18.0354 28.36Z" fill="#6EDE29"/>
</g>
</g>
</g>
</svg>
