<svg width="56" height="56" viewBox="0 0 56 56" fill="none" xmlns="http://www.w3.org/2000/svg">
<g id="Group 19">
<circle id="Oval Copy 29" cx="28" cy="28" r="28" fill="#0D003B"/>
<g id="globe (1)">
<path id="Path" d="M37.1036 19.7187C36.9826 20.08 36.7775 20.4125 36.5092 20.6808L35.6232 21.5668C35.4701 21.7198 35.3828 21.9313 35.3828 22.1468V23.1081C35.3828 23.5607 35.7505 23.9284 36.2031 23.9284C37.5601 23.9284 38.6641 25.0323 38.6641 26.3893V27.643C38.6641 28.0227 38.5743 28.4033 38.4045 28.7429L38.1241 29.3037C37.9391 29.673 38.0873 29.9846 38.1602 30.1016C38.2323 30.2186 38.4445 30.4909 38.8579 30.4909H41.7692C41.9124 29.6905 42 28.8709 42 28.03C42 24.0966 40.302 20.5455 37.6738 18.0079L37.1036 19.7187Z" fill="#6EDE29"/>
<path id="Path_2" d="M21.1644 23.8443C20.9769 24.1848 21.1011 24.6326 21.448 24.8633L23.1527 26C23.1319 24.7127 23.8601 23.459 25.1394 22.8021C25.3789 22.6795 25.5392 22.3655 25.5392 22.0202V21.4675C25.5392 20.1105 26.6431 19.0065 28.0001 19.0065H28.9902C29.2578 19.0065 29.5013 18.8816 29.6567 18.6636C29.8129 18.4458 29.853 18.1758 29.7665 17.9219L28.4684 14.0537C28.3116 14.0485 28.1581 14.03 28 14.03C23.5204 14.03 19.4835 16.2164 16.9304 19.5093L19.5526 20.1513C21.1627 20.5513 21.9713 22.3721 21.1644 23.8443Z" fill="#6EDE29"/>
<path id="Path_3" d="M30.9913 19.6186C30.5307 20.2626 29.7825 20.6472 28.9902 20.6472H28.0001C27.5475 20.6472 27.1797 21.0149 27.1797 21.4675V22.0202C27.1797 22.9799 26.6727 23.8595 25.8884 24.2617C24.9351 24.7511 24.5346 25.827 24.9768 26.7106L25.2261 27.2096H26.1656C27.6091 27.2096 28.9077 28.0123 29.5542 29.3037C29.9202 30.0359 30.6565 30.4909 31.4752 30.4909H32.9219C33.3753 30.4909 33.7422 30.8578 33.7422 31.3112V32.9518C33.7422 34.0573 33.3089 35.0939 32.523 35.8702C31.2566 37.1201 30.0369 39.6947 29.1844 41.97C34.9236 41.484 39.739 37.4619 41.3826 32.1315H38.858C37.9984 32.1315 37.2158 31.6949 36.764 30.9643C36.3129 30.2337 36.2721 29.3381 36.6566 28.5699L36.937 28.0091C36.9939 27.8962 37.0235 27.7696 37.0235 27.643V26.3893C37.0235 25.9367 36.6558 25.569 36.2032 25.569C34.8462 25.569 33.7422 24.4651 33.7422 23.1081V22.1468C33.7422 21.4899 33.9986 20.8715 34.4632 20.4068L35.3492 19.5209C35.439 19.4311 35.5071 19.3198 35.5479 19.1988L36.3249 16.8685C34.5731 15.5585 32.509 14.5991 30.261 14.2302L31.319 17.3932C31.5745 18.1422 31.4519 18.9745 30.9913 19.6186Z" fill="#6EDE29"/>
<path id="Path_4" d="M26.6444 41.9613C25.8655 40.3318 25.5391 36.9666 25.5391 35.5282C25.5391 35.1437 25.3893 34.7823 25.1177 34.5108L24.1388 33.5319C23.8184 33.2114 23.8184 32.6923 24.1388 32.3719L24.6275 31.8832C25.0665 31.4442 25.1746 30.7761 24.8975 30.2217L24.0824 28.5915L20.5379 26.2283C19.4893 25.5298 19.132 24.1358 19.7256 23.0544C20.0128 22.5338 19.7302 21.8863 19.1552 21.743L15.9492 20.9548C14.7192 23.0321 14 25.4459 14 28.03C14 35.262 19.5889 41.2771 26.6444 41.9613Z" fill="#6EDE29"/>
<path id="Path_5" d="M32.1016 32.9518V32.1315H31.4751C30.0316 32.1315 28.733 31.3288 28.0865 30.0375C27.7204 29.3053 26.9842 28.8503 26.1655 28.8503H26.0461L26.3649 29.4879C26.9393 30.6367 26.7406 32.0114 25.8771 32.9503L26.2776 33.3508C26.8593 33.9324 27.1797 34.7055 27.1797 35.5282C27.1797 36.8604 27.4577 39.3223 27.9102 40.7146C28.6601 38.8329 29.8833 36.1699 31.3702 34.703C31.842 34.2368 32.1016 33.6151 32.1016 32.9518Z" fill="#6EDE29"/>
</g>
</g>
</svg>
